<svg xmlns="http://www.w3.org/2000/svg" width="25" height="25" fill="none" viewBox="0 0 25 25"><path fill="#FF9500" d="M12.1055 24.2109C18.7266 24.2109 24.2109 18.7383 24.2109 12.1055C24.2109 5.48438 18.7266 0 12.0938 0C5.47266 0 0 5.48438 0 12.1055C0 18.7383 5.48438 24.2109 12.1055 24.2109ZM12.1055 14.0273C9.80859 14.0156 8.02734 12.0938 8.02734 9.5625C8.01562 7.17188 9.82031 5.17969 12.1055 5.17969C14.3789 5.17969 16.1719 7.17188 16.1719 9.5625C16.1719 12.0938 14.3906 14.0508 12.1055 14.0273ZM12.1055 22.2305C9.48047 22.2305 6.69141 21.1406 4.92188 19.2305C6.25781 17.2148 8.94141 16.0547 12.1055 16.0547C15.2344 16.0547 17.9297 17.1914 19.2773 19.2305C17.5078 21.1406 14.7305 22.2305 12.1055 22.2305Z"/></svg>