<svg xmlns="http://www.w3.org/2000/svg" width="20" height="20" fill="none" viewBox="0 0 20 20"><path fill="gray" d="M4.0232 18.3074H15.8178C15.7628 19.0248 15.3229 19.4092 14.4798 19.4092H5.36118C4.51807 19.4092 4.07818 19.0248 4.0232 18.3074ZM2.04368 15.9416H17.6233C17.4857 16.7189 17.0826 17.1459 16.1661 17.1459H3.49166C2.57523 17.1459 2.18117 16.7189 2.04368 15.9416ZM2.87764 0.192503H16.78C18.6863 0.192503 19.6486 1.08074 19.6486 2.84012V11.9104C19.6486 13.6698 18.6863 14.558 16.78 14.558H2.87764C0.962252 14.558 0 13.6783 0 11.9104V2.84012C0 1.08074 0.962252 0.192503 2.87764 0.192503Z"/></svg>