<svg xmlns="http://www.w3.org/2000/svg" width="25" height="25" fill="none" viewBox="0 0 25 25"><path fill="gray" d="M12.1879 0.192407C13.6626 0.192407 14.8581 1.38828 14.8581 2.86354C14.8581 4.33879 13.6625 5.5346 12.1878 5.5346C10.7131 5.5346 9.51756 4.33872 9.51756 2.86351C9.51946 1.38907 10.7139 0.194288 12.1876 0.192383H12.1878L12.1879 0.192407ZM12.1879 4.42628C13.0507 4.42628 13.7501 3.72661 13.7501 2.86351C13.7501 2.00042 13.0507 1.30075 12.1879 1.30075C11.325 1.30075 10.6256 2.00042 10.6256 2.86351C10.6269 3.72609 11.3256 4.42499 12.1878 4.42628H12.1879ZM15.9107 8.15031H14.8027C14.8027 6.7057 13.632 5.53462 12.1879 5.53462C10.7437 5.53462 9.57301 6.70571 9.57301 8.15033H8.46502C8.46502 6.0936 10.1318 4.4263 12.1879 4.4263C14.2439 4.4263 15.9107 6.0936 15.9107 8.15031ZM20.6528 12.8829C22.1276 12.8829 23.3231 14.0788 23.3231 15.5541C23.3231 17.0293 22.1276 18.2252 20.6528 18.2252C19.1781 18.2252 17.9826 17.0293 17.9826 15.554C17.9845 14.0796 19.1789 12.8848 20.6527 12.8829H20.6528ZM20.6528 17.1168C21.5157 17.1168 22.2151 16.4172 22.2151 15.5541C22.2151 14.691 21.5157 13.9913 20.6528 13.9913C19.79 13.9913 19.0906 14.691 19.0906 15.5541C19.0919 16.4167 19.7906 17.1156 20.6528 17.1169L20.6528 17.1168ZM16.919 20.8542C16.919 18.7944 18.5882 17.1246 20.6473 17.1246C22.7064 17.1246 24.3757 18.7944 24.3757 20.8542H23.2677C23.2677 19.4065 22.0945 18.2329 20.6473 18.2329C19.2001 18.2329 18.0269 19.4065 18.0269 20.8542L16.919 20.8542ZM3.72285 12.8829C5.19756 12.8829 6.39307 14.0789 6.39307 15.5541C6.39307 17.0293 5.19758 18.2252 3.7228 18.2252C2.2481 18.2252 1.05258 17.0293 1.05258 15.5541C1.05449 14.0796 2.24886 12.8848 3.72261 12.8829H3.72285ZM3.72285 17.1169C4.58565 17.1169 5.28508 16.4172 5.28508 15.5541C5.28508 14.691 4.58567 13.9914 3.72285 13.9914C2.86003 13.9914 2.1606 14.691 2.1606 15.5541C2.16186 16.4167 2.86056 17.1156 3.72276 17.1169L3.72285 17.1169ZM7.45675 20.8542H6.34876C6.34876 19.4065 5.17558 18.2329 3.72837 18.2329C2.28117 18.2329 1.10799 19.4065 1.10799 20.8542H0C0 18.7944 1.66926 17.1246 3.72837 17.1246C5.78749 17.1246 7.45675 18.7944 7.45675 20.8542ZM2.18162 11.7192L1.07363 11.6461C1.33873 7.76518 3.55794 4.45638 6.74567 2.67293L6.80191 2.64401L7.33706 3.61493C4.41179 5.24095 2.4116 8.223 2.18319 11.6893L2.1816 11.7192L2.18162 11.7192ZM22.1941 11.7192C21.9655 8.22195 19.9654 5.2385 17.0904 3.63758L17.0397 3.61162L17.5749 2.64073C20.8188 4.45409 23.0375 7.76425 23.2991 11.6118L23.3009 11.646L22.1941 11.7192ZM12.1879 24.576C10.669 24.5747 9.2221 24.2685 7.90437 23.7153L7.97747 23.7425L8.39743 22.7173C9.51761 23.192 10.8202 23.4678 12.1873 23.4678C13.5544 23.4678 14.857 23.192 16.0426 22.6929L15.9772 22.7173L16.3971 23.7425C15.1529 24.2684 13.7063 24.5746 12.1884 24.576H12.1879L12.1879 24.576Z"/></svg>